<svg version="1.2" xmlns="http://www.w3.org/2000/svg" viewBox="0 0 256 256" width="256" height="256">
	<title>add-icon-svg</title>
	<style>
		.s0 { fill: none;stroke: #ffffff;stroke-miterlimit:100;stroke-width: 15 } 
		.s1 { fill: #ffffff } 
	</style>
	<path id="Ciircle" fill-rule="evenodd" class="s0" d="m127.5 237.6c-60.9 0-110.1-49.2-110.1-110.1 0-60.9 49.2-110.1 110.1-110.1 60.9 0 110.1 49.2 110.1 110.1 0 60.9-49.2 110.1-110.1 110.1z"/>
	<path id="Shape 1" class="s1" d="m128.5 223c-13.5 0-24.5-11.1-24.5-24.8 0-13.8 11-24.9 24.5-24.9 13.5 0 24.5 11.1 24.5 24.9 0 13.7-11 24.8-24.5 24.8z"/>
	<path id="Shape 2" class="s1" d="m127.7 32c11.1 0 20.1 9 20.1 20.1v94.3c0 11.1-9 20-20.1 20-11.1 0-20.1-8.9-20.1-20v-94.3c0-11.1 9-20.1 20.1-20.1z"/>
</svg>