<svg version="1.2" xmlns="http://www.w3.org/2000/svg" viewBox="0 0 64 64" width="64" height="64">
	<title>New Project</title>
	<style>
		.s0 { fill: none;stroke: #ffffff;stroke-miterlimit:100;stroke-width: 4.2 } 
	</style>
	<path id="Background" fill-rule="evenodd" class="s0" d="m32 55c-2.8 0-5-2.2-5-5 0-2.8 2.2-5 5-5 2.8 0 5 2.2 5 5 0 2.8-2.2 5-5 5z"/>
	<path id="Shape 1" fill-rule="evenodd" class="s0" d="m23 11c0 0 4.6-2 9.1-2 4.3 0.1 8.6 2 8.6 2 0 0-2.7 14.1-7.9 26.7-0.2 0.6-1 0.9-1 0.9 0 0-0.6-0.1-0.8-0.6-5.1-12.7-8-27-8-27z"/>
</svg>