<svg version="1.2" xmlns="http://www.w3.org/2000/svg" viewBox="0 0 64 64" width="64" height="64">
	<title>New Project</title>
	<style>
		.s0 { fill: #ffffff } 
	</style>
	<path id="Background" fill-rule="evenodd" class="s0" d="m12 30h40c1.6 0 3 1 2.9 2.2 0 1.2-1.3 2.2-3 2.2h-39.9c-1.7 0-3-1-3-2.2 0-1.2 1.4-2.2 3-2.2z"/>
	<path id="Layer 1" class="s0" d="m12 30h40c1.6 0 3 1 2.9 2.2 0 1.2-1.3 2.2-3 2.2h-39.9c-1.7 0-3-1-3-2.2 0-1.2 1.4-2.2 3-2.2zm17.8 22.2v-40c0-1.6 1-3 2.2-3 1.2 0 2.2 1.4 2.2 3.1v39.9c0 1.6-1 3-2.2 3-1.2 0-2.2-1.4-2.2-3z"/>
</svg>